<svg width="20" height="20" viewBox="0 0 20 20" fill="none" xmlns="http://www.w3.org/2000/svg">
<path d="M18.3333 13.3333L9.16663 13.3333L6.66663 15H1.66663L1.66663 5H6.66663L9.16663 6.66667L18.3333 6.66667V13.3333ZM12.9166 10C12.9166 10.3472 12.7951 10.6424 12.552 10.8854C12.309 11.1285 12.0138 11.25 11.6666 11.25C11.3194 11.25 11.0243 11.1285 10.7812 10.8854C10.5382 10.6424 10.4166 10.3472 10.4166 10C10.4166 9.65278 10.5382 9.35764 10.7812 9.11458C11.0243 8.87153 11.3194 8.75 11.6666 8.75C12.0138 8.75 12.309 8.87153 12.552 9.11458C12.7951 9.35764 12.9166 9.65278 12.9166 10ZM4.16663 13.3333V6.66667H3.33329L3.33329 13.3333H4.16663ZM5.83329 6.66667L5.83329 13.3333H6.16663L8.66663 11.6667H16.6666V8.33333H8.66663L6.16663 6.66667H5.83329Z" fill="#1D1B20"/>
</svg>
